# xmcd CD database file
#
# Track frame offsets:
#	150
#	5222
#	19112
#	25942
#	38877
#	43600
#	55385
#	65305
#	84825
#	90875
#	102402
#	110272
#	136452
#	143592
#	163510
#	169575
#	192872
#	201180
#	222225
#	229322
#	249545
#	258182
#	279847
#	287225
#
# Disc length: 4165 seconds
#
# Revision: 0
# Processed by: cddbd v1.5.2PL0 Copyright (c) Steve Scherf et al.
# Submitted via: CDex 1.51
#
DISCID=48104318
DTITLE=Eric Marienthal - Ultimate Jazz Play ALong Eb
DYEAR=1900
DGENRE=Jazz
TTITLE0=Major Chord Solo Short
TTITLE1=Major Chord Solo Long
TTITLE2=Funky Minor Chord Solo Short
TTITLE3=Funky Minor Chord Solo Long
TTITLE4=Blues Solo Short
TTITLE5=Blues Solo Long
TTITLE6=II-V-I Solo Short
TTITLE7=II-V-I Solo Long
TTITLE8=Rhythm Changes Solo Short
TTITLE9=Rhythm Changes Solo Long
TTITLE10=25 Licks Solo Short
TTITLE11=25 Licks Solo Long
TTITLE12=Samba Minor Chord Solo Short
TTITLE13=Samba Minor Chord Solo Long
TTITLE14=Donna Lee Solo Short
TTITLE15=Donna Lee Solo Long
TTITLE16=Funk in D Minor Solo Short
TTITLE17=Funk in D Minor Solo Long
TTITLE18=Minor II-V's Solo Short
TTITLE19=Minor II-V's Solo Long
TTITLE20=Texas Shuffle Solo Short
TTITLE21=Texas Shuffle Solo Long
TTITLE22=Mercy-ish Short
TTITLE23=Mercy-ish Long
EXTD=
EXTT0=
EXTT1=
EXTT2=
EXTT3=
EXTT4=
EXTT5=
EXTT6=
EXTT7=
EXTT8=
EXTT9=
EXTT10=
EXTT11=
EXTT12=
EXTT13=
EXTT14=
EXTT15=
EXTT16=
EXTT17=
EXTT18=
EXTT19=
EXTT20=
EXTT21=
EXTT22=
EXTT23=
PLAYORDER=
